<svg width="557" height="348" viewBox="0 0 557 348" fill="none" xmlns="http://www.w3.org/2000/svg">
<mask id="path-1-inside-1_505_134490" fill="white">
<path d="M231.24 164.444C246.537 164.444 257.964 185.709 241.458 203.974C226.003 221.072 208.499 237.07 208.499 237.07C208.499 237.07 191.004 221.072 175.541 203.974C159.035 185.732 170.455 164.444 185.759 164.444C193.369 164.444 201.932 169.682 208.499 183.188C215.067 169.719 223.615 164.482 231.24 164.482M185.759 163.03C181.977 163.042 178.293 164.225 175.223 166.412C172.094 168.637 169.626 171.653 168.074 175.144C166.093 179.611 165.514 184.564 166.411 189.361C167.401 194.868 170.115 200.113 174.475 204.94C189.794 221.872 207.358 237.952 207.532 238.11L208.499 239L209.467 238.11C209.641 237.952 227.204 221.873 242.524 204.917C246.884 200.091 249.597 194.846 250.587 189.338C251.487 184.542 250.908 179.588 248.925 175.122C247.373 171.628 244.905 168.61 241.775 166.382C238.706 164.195 235.022 163.012 231.24 163C226.627 163.101 222.18 164.723 218.604 167.609C214.825 170.52 211.424 174.695 208.499 180.053C205.575 174.695 202.189 170.52 198.395 167.609C194.819 164.723 190.372 163.101 185.759 163V163.03Z"/>
<path d="M185.759 163.03C181.977 163.042 178.293 164.225 175.223 166.412C172.094 168.637 169.626 171.653 168.074 175.144C166.093 179.611 165.514 184.564 166.411 189.361C167.401 194.868 170.115 200.113 174.475 204.94C189.794 221.872 207.358 237.952 207.532 238.11L208.499 239L209.467 238.11C209.641 237.952 227.204 221.873 242.524 204.917C246.884 200.091 249.597 194.846 250.587 189.338C251.487 184.542 250.908 179.588 248.925 175.122C247.373 171.628 244.905 168.61 241.775 166.382C238.706 164.195 235.022 163.012 231.24 163C226.627 163.101 222.18 164.723 218.604 167.609C214.825 170.52 211.424 174.695 208.499 180.053C205.575 174.695 202.189 170.52 198.395 167.609C194.819 164.723 190.372 163.101 185.759 163V163.03Z"/>
</mask>
<path d="M185.759 163.03L185.76 163.53L186.259 163.528V163.03H185.759ZM175.223 166.412L175.513 166.819L175.514 166.819L175.223 166.412ZM168.074 175.144L167.617 174.941L167.617 174.941L168.074 175.144ZM166.411 189.361L166.903 189.272L166.903 189.269L166.411 189.361ZM174.475 204.94L174.104 205.275L174.105 205.275L174.475 204.94ZM207.532 238.11L207.871 237.742L207.867 237.739L207.532 238.11ZM208.499 239L208.161 239.368L208.499 239.68L208.838 239.368L208.499 239ZM209.467 238.11L209.131 237.739L209.128 237.742L209.467 238.11ZM242.524 204.917L242.153 204.582L242.153 204.582L242.524 204.917ZM250.587 189.338L250.096 189.246L250.095 189.25L250.587 189.338ZM248.925 175.122L249.382 174.919L249.382 174.919L248.925 175.122ZM241.775 166.382L241.485 166.789L241.485 166.789L241.775 166.382ZM231.24 163L231.242 162.5L231.229 162.5L231.24 163ZM218.604 167.609L218.909 168.005L218.918 167.998L218.604 167.609ZM208.499 180.053L208.061 180.292L208.499 181.096L208.938 180.292L208.499 180.053ZM198.395 167.609L198.081 167.998L198.091 168.006L198.395 167.609ZM185.759 163L185.77 162.5L185.259 162.489V163H185.759ZM185.759 163.03L185.757 162.53C181.872 162.543 178.088 163.757 174.933 166.005L175.223 166.412L175.514 166.819C178.499 164.692 182.081 163.542 185.76 163.53L185.759 163.03ZM175.223 166.412L174.934 166.005C171.732 168.281 169.205 171.367 167.617 174.941L168.074 175.144L168.531 175.347C170.046 171.938 172.457 168.993 175.513 166.819L175.223 166.412ZM168.074 175.144L167.617 174.941C165.595 179.501 165.004 184.557 165.92 189.453L166.411 189.361L166.903 189.269C166.024 184.572 166.591 179.721 168.531 175.347L168.074 175.144ZM166.411 189.361L165.919 189.449C166.928 195.062 169.691 200.391 174.104 205.275L174.475 204.94L174.846 204.604C170.538 199.836 167.874 194.674 166.903 189.272L166.411 189.361ZM174.475 204.94L174.105 205.275C189.44 222.226 207.018 238.319 207.197 238.48L207.532 238.11L207.867 237.739C207.698 237.586 190.149 221.519 174.846 204.604L174.475 204.94ZM207.532 238.11L207.193 238.477L208.161 239.368L208.499 239L208.838 238.632L207.871 237.742L207.532 238.11ZM208.499 239L208.838 239.368L209.805 238.477L209.467 238.11L209.128 237.742L208.161 238.632L208.499 239ZM209.467 238.11L209.802 238.48C209.981 238.319 227.559 222.226 242.895 205.252L242.524 204.917L242.153 204.582C226.85 221.519 209.3 237.586 209.131 237.739L209.467 238.11ZM242.524 204.917L242.895 205.252C247.308 200.368 250.07 195.04 251.08 189.427L250.587 189.338L250.095 189.25C249.124 194.651 246.461 199.814 242.153 204.582L242.524 204.917ZM250.587 189.338L251.079 189.431C251.997 184.534 251.406 179.478 249.382 174.919L248.925 175.122L248.468 175.325C250.41 179.698 250.977 184.549 250.096 189.246L250.587 189.338ZM248.925 175.122L249.382 174.919C247.794 171.343 245.267 168.255 242.065 165.975L241.775 166.382L241.485 166.789C244.542 168.966 246.953 171.913 248.468 175.325L248.925 175.122ZM241.775 166.382L242.065 165.975C238.911 163.727 235.127 162.513 231.242 162.5L231.24 163L231.238 163.5C234.917 163.512 238.5 164.662 241.485 166.789L241.775 166.382ZM231.24 163L231.229 162.5C226.506 162.603 221.953 164.264 218.29 167.22L218.604 167.609L218.918 167.998C222.408 165.182 226.748 163.598 231.251 163.5L231.24 163ZM218.604 167.609L218.299 167.213C214.452 170.176 211.01 174.41 208.061 179.813L208.499 180.053L208.938 180.292C211.838 174.98 215.198 170.864 218.909 168.005L218.604 167.609ZM208.499 180.053L208.938 179.813C205.989 174.411 202.562 170.176 198.699 167.213L198.395 167.609L198.091 168.006C201.816 170.864 205.16 174.979 208.061 180.292L208.499 180.053ZM198.395 167.609L198.709 167.22C195.046 164.264 190.493 162.603 185.77 162.5L185.759 163L185.748 163.5C190.251 163.598 194.591 165.182 198.081 167.998L198.395 167.609ZM185.759 163H185.259V163.03H185.759H186.259V163H185.759ZM241.458 203.974L242.2 204.645L242.2 204.645L241.458 203.974ZM208.499 237.07L207.825 237.808L208.499 238.424L209.174 237.808L208.499 237.07ZM175.541 203.974L176.283 203.304L176.282 203.303L175.541 203.974ZM208.499 183.188L207.6 183.625L208.498 185.472L209.398 183.626L208.499 183.188ZM231.24 164.444V165.444C238.4 165.444 244.746 170.429 247.333 177.695C249.904 184.917 248.745 194.419 240.716 203.304L241.458 203.974L242.2 204.645C250.676 195.265 252.057 185.002 249.217 177.024C246.393 169.091 239.376 163.444 231.24 163.444V164.444ZM241.458 203.974L240.716 203.304C233.008 211.831 224.785 220.088 218.486 226.217C215.337 229.28 212.67 231.81 210.791 233.574C209.852 234.455 209.11 235.145 208.602 235.615C208.349 235.849 208.154 236.029 208.023 236.15C207.957 236.21 207.908 236.255 207.874 236.286C207.858 236.301 207.845 236.313 207.837 236.32C207.833 236.324 207.83 236.327 207.828 236.329C207.827 236.33 207.826 236.33 207.825 236.331C207.825 236.331 207.825 236.331 207.825 236.331C207.825 236.331 207.825 236.331 208.499 237.07C209.174 237.808 209.174 237.808 209.174 237.807C209.174 237.807 209.175 237.807 209.175 237.807C209.176 237.806 209.176 237.805 209.178 237.804C209.18 237.802 209.183 237.799 209.187 237.795C209.196 237.788 209.209 237.776 209.226 237.76C209.26 237.729 209.31 237.683 209.377 237.622C209.509 237.5 209.706 237.319 209.961 237.083C210.471 236.61 211.217 235.917 212.16 235.032C214.046 233.262 216.721 230.723 219.88 227.65C226.196 221.506 234.452 213.215 242.2 204.645L241.458 203.974ZM208.499 237.07C209.174 236.332 209.174 236.331 209.174 236.331C209.174 236.331 209.174 236.331 209.174 236.331C209.173 236.33 209.172 236.33 209.171 236.329C209.169 236.327 209.166 236.324 209.162 236.32C209.154 236.313 209.141 236.301 209.125 236.286C209.091 236.256 209.042 236.21 208.976 236.15C208.845 236.029 208.65 235.85 208.397 235.615C207.89 235.146 207.148 234.455 206.209 233.574C204.33 231.81 201.665 229.28 198.516 226.217C192.218 220.088 183.994 211.831 176.283 203.304L175.541 203.974L174.799 204.645C182.55 213.216 190.806 221.506 197.121 227.65C200.28 230.723 202.954 233.261 204.84 235.032C205.782 235.917 206.528 236.61 207.038 237.083C207.293 237.319 207.489 237.5 207.622 237.622C207.688 237.683 207.739 237.729 207.773 237.76C207.79 237.776 207.803 237.787 207.811 237.795C207.816 237.799 207.819 237.802 207.821 237.804C207.822 237.805 207.823 237.806 207.824 237.807C207.824 237.807 207.824 237.807 207.824 237.807C207.824 237.807 207.825 237.808 208.499 237.07ZM175.541 203.974L176.282 203.303C168.254 194.43 167.093 184.928 169.663 177.704C172.249 170.435 178.595 165.444 185.759 165.444V164.444V163.444C177.618 163.444 170.602 169.098 167.779 177.033C164.94 185.013 166.322 195.276 174.799 204.645L175.541 203.974ZM185.759 164.444V165.444C192.849 165.444 201.13 170.32 207.6 183.625L208.499 183.188L209.399 182.751C202.734 169.044 193.889 163.444 185.759 163.444V164.444ZM208.499 183.188L209.398 183.626C215.868 170.358 224.134 165.482 231.24 165.482V164.482V163.482C223.095 163.482 214.266 169.081 207.601 182.75L208.499 183.188Z" fill="#B54A4A" mask="url(#path-1-inside-1_505_134490)"/>
<path d="M487.37 42.46H492.05V14.65C490.835 15.865 488.81 17.53 486.425 18.835L486.155 18.43C489.71 16.36 492.95 13.435 494.93 9.475H495.425V42.46H500.105V43H487.37V42.46ZM31.5081 101V100.37C39.8331 91.46 40.0581 91.235 40.7781 90.425C33.3981 86.51 30.5631 81.605 30.5631 77.375C30.5631 71.975 35.1531 67.745 40.5081 67.745C46.5381 67.745 51.1281 70.49 51.1281 76.97C51.1281 81.425 47.0331 85.655 44.0631 88.535L42.0831 90.515C43.7931 91.325 45.7281 92.135 47.9781 92.855L47.7981 93.395C45.4131 92.63 43.4331 91.775 41.7231 90.92L34.3881 98.075H43.8381C47.8881 98.075 49.8681 97.49 50.2731 97.175L51.6231 84.98H52.1631L50.5431 101H31.5081ZM41.1381 90.02C44.6031 86.15 47.3931 82.28 47.3931 77.195C47.3931 72.875 45.2781 68.42 40.5081 68.285C35.5131 68.375 31.1031 72.335 31.1031 77.375C31.1031 81.47 33.8481 86.195 41.1381 90.02ZM143.33 66.98L139.46 69.275C133.655 72.695 129.83 76.52 126.05 80.525C126.815 80.165 128.03 79.805 129.56 79.805C136.4 79.805 140 84.665 140 90.2C140 97.67 134.15 101.675 127.715 101.675C121.1 101.675 116.285 96.635 116.285 89.84C116.285 87.995 116.645 86.105 117.365 84.08C116.375 81.785 115.745 79.22 115.745 76.745C115.745 71.885 118.22 67.7 124.115 67.7C127.76 67.7 131.135 69.365 134.915 69.365C136.985 69.365 139.595 68.69 142.97 66.53L143.33 66.98ZM124.79 81.83L124.43 81.47C128.66 76.925 131.9 73.46 138.065 69.455C136.85 69.815 135.59 69.95 134.33 69.95C131.9 69.95 129.065 69.455 126.815 69.455C119.975 69.455 116.915 73.955 116.915 78.995C116.915 80.48 117.14 82.01 117.635 83.405C118.49 81.425 119.795 79.175 121.64 77.06L122 77.42C118.355 81.83 116.825 86.15 116.825 89.84C116.825 96.275 121.505 101 127.715 101.135C133.385 100.955 136.22 96.32 136.22 89.705C136.22 82.82 132.98 80.435 129.29 80.435C127.31 80.435 125.69 81.245 124.79 81.83ZM191.168 93.665V93.125C196.838 85.475 202.013 77.78 205.928 67.25L209.753 69.545L191.888 93.125H205.118V81.245L208.538 78.455V93.125H212.993V93.665H208.538V100.46H212.903V101H200.708V100.46H205.118V93.665H191.168ZM281.406 81.965L281.136 81.695L277.716 69.005H274.521V68.465H291.936L294.591 79.895L294.186 80.075L291.486 70.04C289.191 68.915 286.626 69.005 283.746 69.005H278.256L281.631 81.29C283.566 80.39 285.276 80.03 286.851 80.03C293.016 80.03 296.706 85.655 296.706 90.155C296.706 98.21 290.856 101.675 284.421 101.675C277.806 101.675 272.991 96.635 272.991 89.84C272.991 85.97 274.566 81.515 278.346 77.06L278.706 77.42C275.061 81.83 273.531 86.15 273.531 89.84C273.531 96.275 278.211 101 284.421 101.135C290.091 100.955 292.926 96.59 292.926 89.885C292.926 83.72 289.911 80.84 285.996 80.84C284.556 80.84 283.026 81.2 281.406 81.965ZM381.885 62.705H381.975C389.085 62.75 392.19 65.585 392.19 70.535C392.19 79.58 382.425 87.68 372.12 91.415C371.715 97.445 366.495 101.675 361.005 101.675C355.335 101.675 350.835 97.175 350.475 90.38C347.235 87.725 345.705 83.9 345.705 80.345C345.705 73.145 352.095 64.91 361.86 64.91C364.65 64.91 366.765 65.63 368.25 66.62C373.29 64.145 378.375 62.75 381.885 62.705ZM372.12 90.65V90.83C382.2 87.185 391.65 79.31 391.65 70.535C391.65 65.9 388.77 63.245 381.93 63.245C375.945 63.245 358.35 69.275 354.84 84.44C356.505 82.73 359.34 81.74 362.31 81.74C367.44 81.74 372.12 84.665 372.12 90.65ZM350.475 89.66C350.475 79.535 358.98 71.525 367.71 66.935C366.315 65.99 364.425 65.45 361.86 65.45C352.41 65.45 346.245 73.325 346.245 80.345C346.245 83.675 347.505 87.185 350.475 89.66ZM361.5 82.64C356.55 82.64 354.075 85.025 354.12 89.75C354.12 90.335 354.165 91.325 354.21 91.865C356.055 92.585 358.215 92.99 360.87 92.99C363.21 92.99 365.775 92.675 368.34 92.045V91.235C368.34 85.295 365.595 82.64 361.5 82.64ZM361.32 101.135C364.56 101.135 367.845 98.3 368.295 92.585C365.73 93.215 363.255 93.53 360.87 93.53C358.305 93.53 356.145 93.125 354.255 92.495C354.885 98.66 358.215 101.135 361.32 101.135ZM427.892 100.46H433.472C434.822 87.41 437.027 76.925 445.442 69.68C442.067 71.3 439.097 71.93 435.902 73.37C432.212 74.99 429.602 77.06 429.602 81.29C429.602 83.135 430.097 85.475 431.267 88.4L430.817 88.625C427.802 83.63 425.552 77.96 425.552 73.73C425.552 70.085 427.217 67.52 431.762 67.52C435.317 67.52 438.782 69.365 441.842 69.365C443.912 69.365 446.522 68.69 449.987 66.44L450.347 66.89C441.932 71.75 437.162 79.715 437.162 92.36C437.162 94.835 437.342 97.58 437.747 100.46H445.127V101H427.892V100.46ZM427.487 76.295C427.487 78.905 428.252 81.92 429.512 84.89C429.197 83.54 429.062 82.325 429.062 81.29C429.062 76.745 431.807 74.585 435.632 72.92C438.287 71.795 441.617 70.715 444.137 69.68C443.192 69.86 442.247 69.95 441.212 69.95C438.827 69.95 436.487 69.545 433.922 69.545C429.197 69.545 427.487 72.38 427.487 76.295ZM486.898 92.9C486.898 88.985 489.553 85.025 495.313 83.99C491.623 81.83 488.923 79.58 488.923 75.485C488.923 71.345 491.578 67.745 497.923 67.745C503.683 67.745 506.563 71.12 506.563 74.72C506.563 77.825 504.493 81.11 499.903 82.325C504.178 84.53 508.228 87.41 508.228 92.63C508.228 97.4 504.808 101.675 497.428 101.675C490.453 101.675 486.898 97.355 486.898 92.9ZM497.608 101.135C503.188 101.135 505.303 97.4 505.303 94.025C505.303 91.325 503.863 88.94 501.253 87.185C499.903 86.195 497.338 84.665 495.358 84.665C492.118 84.665 489.733 88.85 489.733 92.99C489.733 97.085 491.983 101.135 497.608 101.135ZM497.113 81.11C498.103 81.56 498.598 81.785 499.318 81.785C502.063 81.785 504.043 78.23 504.043 74.765C504.043 71.48 502.288 68.285 497.788 68.285C493.198 68.285 491.488 71.345 491.488 74.27C491.488 77.78 494.773 79.94 497.113 81.11ZM33.2631 161.205C25.4331 161.205 21.1581 155.49 21.1581 149.955C21.1581 144.735 25.0731 139.605 33.2631 139.425C32.8581 138.39 32.5881 137.13 32.5881 135.78C32.5881 130.335 36.9981 125.79 43.3431 125.79C50.5431 125.79 53.6481 131.37 53.6481 137.625C53.6481 148.605 45.0531 161.205 33.2631 161.205ZM21.6981 149.955C21.6981 155.265 25.7481 160.665 33.2631 160.665C39.9231 160.665 44.5581 156.165 47.3031 150.585C44.6481 154.455 41.0031 156.03 37.3581 156.03C30.9231 156.03 27.8181 151.575 27.8181 147.345C27.8181 144.33 29.6181 141.27 32.6781 140.01C25.1181 140.28 21.6981 145.05 21.6981 149.955ZM37.3581 155.49C45.1431 155.49 49.3281 147.795 49.9581 140.73C48.0681 144.015 44.6481 144.96 42.0831 144.96C38.9331 144.96 35.3331 143.61 33.5781 140.235C30.1581 141.225 28.3581 144.285 28.3581 147.345C28.3581 151.35 31.2831 155.49 37.3581 155.49ZM43.2981 144.105C46.6281 144.105 50.0931 141.675 50.0931 136.32C50.0931 131.325 47.9781 126.33 43.2531 126.33C38.7981 126.33 36.2781 130.155 36.2781 135.78C36.2781 140.82 39.2031 144.105 43.2981 144.105ZM107.682 158.46H112.362V130.65C111.147 131.865 109.122 133.53 106.737 134.835L106.467 134.43C110.022 132.36 113.262 129.435 115.242 125.475H115.737V158.46H120.417V159H107.682V158.46ZM134.613 125.79C142.083 125.79 145.188 135.015 145.188 142.665C145.188 149.82 141.993 159.675 134.613 159.675C127.188 159.675 124.038 151.26 124.038 142.665C124.038 134.205 127.188 125.79 134.613 125.79ZM129.618 152.295C129.618 155.535 130.878 159.135 134.613 159.135C138.933 159.135 141.453 152.295 141.453 142.665C141.453 137.13 140.418 128.715 136.413 126.69C136.503 127.005 136.593 127.41 136.593 127.86C136.593 129.75 135.378 132.945 133.893 136.635C131.913 141.63 129.618 147.525 129.618 152.295ZM127.773 142.665C127.773 146.625 128.133 150.585 129.123 153.69C129.078 153.24 129.078 152.79 129.078 152.295C129.078 147.39 131.418 141.405 133.443 136.365C134.838 132.765 136.098 129.66 136.098 127.86C136.098 126.915 135.693 126.33 134.613 126.33C128.943 126.33 127.773 135.645 127.773 142.665ZM190.168 158.46H194.848V130.65C193.633 131.865 191.608 133.53 189.223 134.835L188.953 134.43C192.508 132.36 195.748 129.435 197.728 125.475H198.223V158.46H202.903V159H190.168V158.46ZM206.164 158.46H210.844V130.65C209.629 131.865 207.604 133.53 205.219 134.835L204.949 134.43C208.504 132.36 211.744 129.435 213.724 125.475H214.219V158.46H218.899V159H206.164V158.46ZM271.598 158.46H276.278V130.65C275.063 131.865 273.038 133.53 270.653 134.835L270.383 134.43C273.938 132.36 277.178 129.435 279.158 125.475H279.653V158.46H284.333V159H271.598V158.46ZM286.874 159V158.37C295.199 149.46 295.424 149.235 296.144 148.425C288.764 144.51 285.929 139.605 285.929 135.375C285.929 129.975 290.519 125.745 295.874 125.745C301.904 125.745 306.494 128.49 306.494 134.97C306.494 139.425 302.399 143.655 299.429 146.535L297.449 148.515C299.159 149.325 301.094 150.135 303.344 150.855L303.164 151.395C300.779 150.63 298.799 149.775 297.089 148.92L289.754 156.075H299.204C303.254 156.075 305.234 155.49 305.639 155.175L306.989 142.98H307.529L305.909 159H286.874ZM296.504 148.02C299.969 144.15 302.759 140.28 302.759 135.195C302.759 130.875 300.644 126.42 295.874 126.285C290.879 126.375 286.469 130.335 286.469 135.375C286.469 139.47 289.214 144.195 296.504 148.02ZM342.438 158.46H347.118V130.65C345.903 131.865 343.878 133.53 341.493 134.835L341.223 134.43C344.778 132.36 348.018 129.435 349.998 125.475H350.493V158.46H355.173V159H342.438V158.46ZM385.029 124.98L381.159 127.275C375.354 130.695 371.529 134.52 367.749 138.525C368.514 138.165 369.729 137.805 371.259 137.805C378.099 137.805 381.699 142.665 381.699 148.2C381.699 155.67 375.849 159.675 369.414 159.675C362.799 159.675 357.984 154.635 357.984 147.84C357.984 145.995 358.344 144.105 359.064 142.08C358.074 139.785 357.444 137.22 357.444 134.745C357.444 129.885 359.919 125.7 365.814 125.7C369.459 125.7 372.834 127.365 376.614 127.365C378.684 127.365 381.294 126.69 384.669 124.53L385.029 124.98ZM366.489 139.83L366.129 139.47C370.359 134.925 373.599 131.46 379.764 127.455C378.549 127.815 377.289 127.95 376.029 127.95C373.599 127.95 370.764 127.455 368.514 127.455C361.674 127.455 358.614 131.955 358.614 136.995C358.614 138.48 358.839 140.01 359.334 141.405C360.189 139.425 361.494 137.175 363.339 135.06L363.699 135.42C360.054 139.83 358.524 144.15 358.524 147.84C358.524 154.275 363.204 159 369.414 159.135C375.084 158.955 377.919 154.32 377.919 147.705C377.919 140.82 374.679 138.435 370.989 138.435C369.009 138.435 367.389 139.245 366.489 139.83ZM415.387 158.46H420.067V130.65C418.852 131.865 416.827 133.53 414.442 134.835L414.172 134.43C417.727 132.36 420.967 129.435 422.947 125.475H423.442V158.46H428.122V159H415.387V158.46ZM429.088 151.665V151.125C434.758 143.475 439.933 135.78 443.848 125.25L447.673 127.545L429.808 151.125H443.038V139.245L446.458 136.455V151.125H450.913V151.665H446.458V158.46H450.823V159H438.628V158.46H443.038V151.665H429.088ZM483.678 158.46H488.358V130.65C487.143 131.865 485.118 133.53 482.733 134.835L482.463 134.43C486.018 132.36 489.258 129.435 491.238 125.475H491.733V158.46H496.413V159H483.678V158.46ZM505.659 139.965L505.389 139.695L501.969 127.005H498.774V126.465H516.189L518.844 137.895L518.439 138.075L515.739 128.04C513.444 126.915 510.879 127.005 507.999 127.005H502.509L505.884 139.29C507.819 138.39 509.529 138.03 511.104 138.03C517.269 138.03 520.959 143.655 520.959 148.155C520.959 156.21 515.109 159.675 508.674 159.675C502.059 159.675 497.244 154.635 497.244 147.84C497.244 143.97 498.819 139.515 502.599 135.06L502.959 135.42C499.314 139.83 497.784 144.15 497.784 147.84C497.784 154.275 502.464 159 508.674 159.135C514.344 158.955 517.179 154.59 517.179 147.885C517.179 141.72 514.164 138.84 510.249 138.84C508.809 138.84 507.279 139.2 505.659 139.965ZM22.3404 216.46H27.0204V188.65C25.8054 189.865 23.7804 191.53 21.3954 192.835L21.1254 192.43C24.6804 190.36 27.9204 187.435 29.9004 183.475H30.3954V216.46H35.0754V217H22.3404V216.46ZM69.5215 178.705H69.6115C76.7215 178.75 79.8265 181.585 79.8265 186.535C79.8265 195.58 70.0615 203.68 59.7565 207.415C59.3515 213.445 54.1315 217.675 48.6415 217.675C42.9715 217.675 38.4715 213.175 38.1115 206.38C34.8715 203.725 33.3415 199.9 33.3415 196.345C33.3415 189.145 39.7315 180.91 49.4965 180.91C52.2865 180.91 54.4015 181.63 55.8865 182.62C60.9265 180.145 66.0115 178.75 69.5215 178.705ZM59.7565 206.65V206.83C69.8365 203.185 79.2865 195.31 79.2865 186.535C79.2865 181.9 76.4065 179.245 69.5665 179.245C63.5815 179.245 45.9865 185.275 42.4765 200.44C44.1415 198.73 46.9765 197.74 49.9465 197.74C55.0765 197.74 59.7565 200.665 59.7565 206.65ZM38.1115 205.66C38.1115 195.535 46.6165 187.525 55.3465 182.935C53.9515 181.99 52.0615 181.45 49.4965 181.45C40.0465 181.45 33.8815 189.325 33.8815 196.345C33.8815 199.675 35.1415 203.185 38.1115 205.66ZM49.1365 198.64C44.1865 198.64 41.7115 201.025 41.7565 205.75C41.7565 206.335 41.8015 207.325 41.8465 207.865C43.6915 208.585 45.8515 208.99 48.5065 208.99C50.8465 208.99 53.4115 208.675 55.9765 208.045V207.235C55.9765 201.295 53.2315 198.64 49.1365 198.64ZM48.9565 217.135C52.1965 217.135 55.4815 214.3 55.9315 208.585C53.3665 209.215 50.8915 209.53 48.5065 209.53C45.9415 209.53 43.7815 209.125 41.8915 208.495C42.5215 214.66 45.8515 217.135 48.9565 217.135ZM114.494 216.46H119.174V188.65C117.959 189.865 115.934 191.53 113.549 192.835L113.279 192.43C116.834 190.36 120.074 187.435 122.054 183.475H122.549V216.46H127.229V217H114.494V216.46ZM131.525 216.46H137.105C138.455 203.41 140.66 192.925 149.075 185.68C145.7 187.3 142.73 187.93 139.535 189.37C135.845 190.99 133.235 193.06 133.235 197.29C133.235 199.135 133.73 201.475 134.9 204.4L134.45 204.625C131.435 199.63 129.185 193.96 129.185 189.73C129.185 186.085 130.85 183.52 135.395 183.52C138.95 183.52 142.415 185.365 145.475 185.365C147.545 185.365 150.155 184.69 153.62 182.44L153.98 182.89C145.565 187.75 140.795 195.715 140.795 208.36C140.795 210.835 140.975 213.58 141.38 216.46H148.76V217H131.525V216.46ZM131.12 192.295C131.12 194.905 131.885 197.92 133.145 200.89C132.83 199.54 132.695 198.325 132.695 197.29C132.695 192.745 135.44 190.585 139.265 188.92C141.92 187.795 145.25 186.715 147.77 185.68C146.825 185.86 145.88 185.95 144.845 185.95C142.46 185.95 140.12 185.545 137.555 185.545C132.83 185.545 131.12 188.38 131.12 192.295ZM191.925 216.46H196.605V188.65C195.39 189.865 193.365 191.53 190.98 192.835L190.71 192.43C194.265 190.36 197.505 187.435 199.485 183.475H199.98V216.46H204.66V217H191.925V216.46ZM206.526 208.9C206.526 204.985 209.181 201.025 214.941 199.99C211.251 197.83 208.551 195.58 208.551 191.485C208.551 187.345 211.206 183.745 217.551 183.745C223.311 183.745 226.191 187.12 226.191 190.72C226.191 193.825 224.121 197.11 219.531 198.325C223.806 200.53 227.856 203.41 227.856 208.63C227.856 213.4 224.436 217.675 217.056 217.675C210.081 217.675 206.526 213.355 206.526 208.9ZM217.236 217.135C222.816 217.135 224.931 213.4 224.931 210.025C224.931 207.325 223.491 204.94 220.881 203.185C219.531 202.195 216.966 200.665 214.986 200.665C211.746 200.665 209.361 204.85 209.361 208.99C209.361 213.085 211.611 217.135 217.236 217.135ZM216.741 197.11C217.731 197.56 218.226 197.785 218.946 197.785C221.691 197.785 223.671 194.23 223.671 190.765C223.671 187.48 221.916 184.285 217.416 184.285C212.826 184.285 211.116 187.345 211.116 190.27C211.116 193.78 214.401 195.94 216.741 197.11ZM271.115 216.46H275.795V188.65C274.58 189.865 272.555 191.53 270.17 192.835L269.9 192.43C273.455 190.36 276.695 187.435 278.675 183.475H279.17V216.46H283.85V217H271.115V216.46ZM290.387 219.205C282.557 219.205 278.282 213.49 278.282 207.955C278.282 202.735 282.197 197.605 290.387 197.425C289.982 196.39 289.712 195.13 289.712 193.78C289.712 188.335 294.122 183.79 300.467 183.79C307.667 183.79 310.772 189.37 310.772 195.625C310.772 206.605 302.177 219.205 290.387 219.205ZM278.822 207.955C278.822 213.265 282.872 218.665 290.387 218.665C297.047 218.665 301.682 214.165 304.427 208.585C301.772 212.455 298.127 214.03 294.482 214.03C288.047 214.03 284.942 209.575 284.942 205.345C284.942 202.33 286.742 199.27 289.802 198.01C282.242 198.28 278.822 203.05 278.822 207.955ZM294.482 213.49C302.267 213.49 306.452 205.795 307.082 198.73C305.192 202.015 301.772 202.96 299.207 202.96C296.057 202.96 292.457 201.61 290.702 198.235C287.282 199.225 285.482 202.285 285.482 205.345C285.482 209.35 288.407 213.49 294.482 213.49ZM300.422 202.105C303.752 202.105 307.217 199.675 307.217 194.32C307.217 189.325 305.102 184.33 300.377 184.33C295.922 184.33 293.402 188.155 293.402 193.78C293.402 198.82 296.327 202.105 300.422 202.105ZM344.311 217V216.37C352.636 207.46 352.861 207.235 353.581 206.425C346.201 202.51 343.366 197.605 343.366 193.375C343.366 187.975 347.956 183.745 353.311 183.745C359.341 183.745 363.931 186.49 363.931 192.97C363.931 197.425 359.836 201.655 356.866 204.535L354.886 206.515C356.596 207.325 358.531 208.135 360.781 208.855L360.601 209.395C358.216 208.63 356.236 207.775 354.526 206.92L347.191 214.075H356.641C360.691 214.075 362.671 213.49 363.076 213.175L364.426 200.98H364.966L363.346 217H344.311ZM353.941 206.02C357.406 202.15 360.196 198.28 360.196 193.195C360.196 188.875 358.081 184.42 353.311 184.285C348.316 184.375 343.906 188.335 343.906 193.375C343.906 197.47 346.651 202.195 353.941 206.02ZM381.146 183.79C388.616 183.79 391.721 193.015 391.721 200.665C391.721 207.82 388.526 217.675 381.146 217.675C373.721 217.675 370.571 209.26 370.571 200.665C370.571 192.205 373.721 183.79 381.146 183.79ZM376.151 210.295C376.151 213.535 377.411 217.135 381.146 217.135C385.466 217.135 387.986 210.295 387.986 200.665C387.986 195.13 386.951 186.715 382.946 184.69C383.036 185.005 383.126 185.41 383.126 185.86C383.126 187.75 381.911 190.945 380.426 194.635C378.446 199.63 376.151 205.525 376.151 210.295ZM374.306 200.665C374.306 204.625 374.666 208.585 375.656 211.69C375.611 211.24 375.611 210.79 375.611 210.295C375.611 205.39 377.951 199.405 379.976 194.365C381.371 190.765 382.631 187.66 382.631 185.86C382.631 184.915 382.226 184.33 381.146 184.33C375.476 184.33 374.306 193.645 374.306 200.665ZM426.093 217V216.37C434.418 207.46 434.643 207.235 435.363 206.425C427.983 202.51 425.148 197.605 425.148 193.375C425.148 187.975 429.738 183.745 435.093 183.745C441.123 183.745 445.713 186.49 445.713 192.97C445.713 197.425 441.618 201.655 438.648 204.535L436.668 206.515C438.378 207.325 440.313 208.135 442.563 208.855L442.383 209.395C439.998 208.63 438.018 207.775 436.308 206.92L428.973 214.075H438.423C442.473 214.075 444.453 213.49 444.858 213.175L446.208 200.98H446.748L445.128 217H426.093ZM435.723 206.02C439.188 202.15 441.978 198.28 441.978 193.195C441.978 188.875 439.863 184.42 435.093 184.285C430.098 184.375 425.688 188.335 425.688 193.375C425.688 197.47 428.433 202.195 435.723 206.02ZM451.994 216.46H456.674V188.65C455.459 189.865 453.434 191.53 451.049 192.835L450.779 192.43C454.334 190.36 457.574 187.435 459.554 183.475H460.049V216.46H464.729V217H451.994V216.46ZM487.045 217V216.37C495.37 207.46 495.595 207.235 496.315 206.425C488.935 202.51 486.1 197.605 486.1 193.375C486.1 187.975 490.69 183.745 496.045 183.745C502.075 183.745 506.665 186.49 506.665 192.97C506.665 197.425 502.57 201.655 499.6 204.535L497.62 206.515C499.33 207.325 501.265 208.135 503.515 208.855L503.335 209.395C500.95 208.63 498.97 207.775 497.26 206.92L489.925 214.075H499.375C503.425 214.075 505.405 213.49 505.81 213.175L507.16 200.98H507.7L506.08 217H487.045ZM496.675 206.02C500.14 202.15 502.93 198.28 502.93 193.195C502.93 188.875 500.815 184.42 496.045 184.285C491.05 184.375 486.64 188.335 486.64 193.375C486.64 197.47 489.385 202.195 496.675 206.02ZM512.226 217V216.37C520.551 207.46 520.776 207.235 521.496 206.425C514.116 202.51 511.281 197.605 511.281 193.375C511.281 187.975 515.871 183.745 521.226 183.745C527.256 183.745 531.846 186.49 531.846 192.97C531.846 197.425 527.751 201.655 524.781 204.535L522.801 206.515C524.511 207.325 526.446 208.135 528.696 208.855L528.516 209.395C526.131 208.63 524.151 207.775 522.441 206.92L515.106 214.075H524.556C528.606 214.075 530.586 213.49 530.991 213.175L532.341 200.98H532.881L531.261 217H512.226ZM521.856 206.02C525.321 202.15 528.111 198.28 528.111 193.195C528.111 188.875 525.996 184.42 521.226 184.285C516.231 184.375 511.821 188.335 511.821 193.375C511.821 197.47 514.566 202.195 521.856 206.02ZM21.6204 275V274.37C29.9454 265.46 30.1704 265.235 30.8904 264.425C23.5104 260.51 20.6754 255.605 20.6754 251.375C20.6754 245.975 25.2654 241.745 30.6204 241.745C36.6504 241.745 41.2404 244.49 41.2404 250.97C41.2404 255.425 37.1454 259.655 34.1754 262.535L32.1954 264.515C33.9054 265.325 35.8404 266.135 38.0904 266.855L37.9104 267.395C35.5254 266.63 33.5454 265.775 31.8354 264.92L24.5004 272.075H33.9504C38.0004 272.075 39.9804 271.49 40.3854 271.175L41.7354 258.98H42.2754L40.6554 275H21.6204ZM31.2504 264.02C34.7154 260.15 37.5054 256.28 37.5054 251.195C37.5054 246.875 35.3904 242.42 30.6204 242.285C25.6254 242.375 21.2154 246.335 21.2154 251.375C21.2154 255.47 23.9604 260.195 31.2504 264.02ZM74.1161 240.98L70.2461 243.275C64.4411 246.695 60.6161 250.52 56.8361 254.525C57.6011 254.165 58.8161 253.805 60.3461 253.805C67.1861 253.805 70.7861 258.665 70.7861 264.2C70.7861 271.67 64.9361 275.675 58.5011 275.675C51.8861 275.675 47.0711 270.635 47.0711 263.84C47.0711 261.995 47.4311 260.105 48.1511 258.08C47.1611 255.785 46.5311 253.22 46.5311 250.745C46.5311 245.885 49.0061 241.7 54.9011 241.7C58.5461 241.7 61.9211 243.365 65.7011 243.365C67.7711 243.365 70.3811 242.69 73.7561 240.53L74.1161 240.98ZM55.5761 255.83L55.2161 255.47C59.4461 250.925 62.6861 247.46 68.8511 243.455C67.6361 243.815 66.3761 243.95 65.1161 243.95C62.6861 243.95 59.8511 243.455 57.6011 243.455C50.7611 243.455 47.7011 247.955 47.7011 252.995C47.7011 254.48 47.9261 256.01 48.4211 257.405C49.2761 255.425 50.5811 253.175 52.4261 251.06L52.7861 251.42C49.1411 255.83 47.6111 260.15 47.6111 263.84C47.6111 270.275 52.2911 275 58.5011 275.135C64.1711 274.955 67.0061 270.32 67.0061 263.705C67.0061 256.82 63.7661 254.435 60.0761 254.435C58.0961 254.435 56.4761 255.245 55.5761 255.83ZM93.8665 275V274.37C102.191 265.46 102.416 265.235 103.136 264.425C95.7565 260.51 92.9215 255.605 92.9215 251.375C92.9215 245.975 97.5115 241.745 102.866 241.745C108.896 241.745 113.486 244.49 113.486 250.97C113.486 255.425 109.391 259.655 106.421 262.535L104.441 264.515C106.151 265.325 108.086 266.135 110.336 266.855L110.156 267.395C107.771 266.63 105.791 265.775 104.081 264.92L96.7465 272.075H106.196C110.246 272.075 112.226 271.49 112.631 271.175L113.981 258.98H114.521L112.901 275H93.8665ZM103.496 264.02C106.961 260.15 109.751 256.28 109.751 251.195C109.751 246.875 107.636 242.42 102.866 242.285C97.8715 242.375 93.4615 246.335 93.4615 251.375C93.4615 255.47 96.2065 260.195 103.496 264.02ZM117.033 267.665V267.125C122.703 259.475 127.878 251.78 131.793 241.25L135.618 243.545L117.753 267.125H130.983V255.245L134.403 252.455V267.125H138.858V267.665H134.403V274.46H138.768V275H126.573V274.46H130.983V267.665H117.033ZM180.79 275V274.37C189.115 265.46 189.34 265.235 190.06 264.425C182.68 260.51 179.845 255.605 179.845 251.375C179.845 245.975 184.435 241.745 189.79 241.745C195.82 241.745 200.41 244.49 200.41 250.97C200.41 255.425 196.315 259.655 193.345 262.535L191.365 264.515C193.075 265.325 195.01 266.135 197.26 266.855L197.08 267.395C194.695 266.63 192.715 265.775 191.005 264.92L183.67 272.075H193.12C197.17 272.075 199.15 271.49 199.555 271.175L200.905 258.98H201.445L199.825 275H180.79ZM190.42 264.02C193.885 260.15 196.675 256.28 196.675 251.195C196.675 246.875 194.56 242.42 189.79 242.285C184.795 242.375 180.385 246.335 180.385 251.375C180.385 255.47 183.13 260.195 190.42 264.02ZM212.676 255.965L212.406 255.695L208.986 243.005H205.791V242.465H223.206L225.861 253.895L225.456 254.075L222.756 244.04C220.461 242.915 217.896 243.005 215.016 243.005H209.526L212.901 255.29C214.836 254.39 216.546 254.03 218.121 254.03C224.286 254.03 227.976 259.655 227.976 264.155C227.976 272.21 222.126 275.675 215.691 275.675C209.076 275.675 204.261 270.635 204.261 263.84C204.261 259.97 205.836 255.515 209.616 251.06L209.976 251.42C206.331 255.83 204.801 260.15 204.801 263.84C204.801 270.275 209.481 275 215.691 275.135C221.361 274.955 224.196 270.59 224.196 263.885C224.196 257.72 221.181 254.84 217.266 254.84C215.826 254.84 214.296 255.2 212.676 255.965ZM261.474 275V274.37C269.799 265.46 270.024 265.235 270.744 264.425C263.364 260.51 260.529 255.605 260.529 251.375C260.529 245.975 265.119 241.745 270.474 241.745C276.504 241.745 281.094 244.49 281.094 250.97C281.094 255.425 276.999 259.655 274.029 262.535L272.049 264.515C273.759 265.325 275.694 266.135 277.944 266.855L277.764 267.395C275.379 266.63 273.399 265.775 271.689 264.92L264.354 272.075H273.804C277.854 272.075 279.834 271.49 280.239 271.175L281.589 258.98H282.129L280.509 275H261.474ZM271.104 264.02C274.569 260.15 277.359 256.28 277.359 251.195C277.359 246.875 275.244 242.42 270.474 242.285C265.479 242.375 261.069 246.335 261.069 251.375C261.069 255.47 263.814 260.195 271.104 264.02ZM318.56 236.705H318.65C325.76 236.75 328.865 239.585 328.865 244.535C328.865 253.58 319.1 261.68 308.795 265.415C308.39 271.445 303.17 275.675 297.68 275.675C292.01 275.675 287.51 271.175 287.15 264.38C283.91 261.725 282.38 257.9 282.38 254.345C282.38 247.145 288.77 238.91 298.535 238.91C301.325 238.91 303.44 239.63 304.925 240.62C309.965 238.145 315.05 236.75 318.56 236.705ZM308.795 264.65V264.83C318.875 261.185 328.325 253.31 328.325 244.535C328.325 239.9 325.445 237.245 318.605 237.245C312.62 237.245 295.025 243.275 291.515 258.44C293.18 256.73 296.015 255.74 298.985 255.74C304.115 255.74 308.795 258.665 308.795 264.65ZM287.15 263.66C287.15 253.535 295.655 245.525 304.385 240.935C302.99 239.99 301.1 239.45 298.535 239.45C289.085 239.45 282.92 247.325 282.92 254.345C282.92 257.675 284.18 261.185 287.15 263.66ZM298.175 256.64C293.225 256.64 290.75 259.025 290.795 263.75C290.795 264.335 290.84 265.325 290.885 265.865C292.73 266.585 294.89 266.99 297.545 266.99C299.885 266.99 302.45 266.675 305.015 266.045V265.235C305.015 259.295 302.27 256.64 298.175 256.64ZM297.995 275.135C301.235 275.135 304.52 272.3 304.97 266.585C302.405 267.215 299.93 267.53 297.545 267.53C294.98 267.53 292.82 267.125 290.93 266.495C291.56 272.66 294.89 275.135 297.995 275.135ZM343.036 275V274.37C351.361 265.46 351.586 265.235 352.306 264.425C344.926 260.51 342.091 255.605 342.091 251.375C342.091 245.975 346.681 241.745 352.036 241.745C358.066 241.745 362.656 244.49 362.656 250.97C362.656 255.425 358.561 259.655 355.591 262.535L353.611 264.515C355.321 265.325 357.256 266.135 359.506 266.855L359.326 267.395C356.941 266.63 354.961 265.775 353.251 264.92L345.916 272.075H355.366C359.416 272.075 361.396 271.49 361.801 271.175L363.151 258.98H363.691L362.071 275H343.036ZM352.666 264.02C356.131 260.15 358.921 256.28 358.921 251.195C358.921 246.875 356.806 242.42 352.036 242.285C347.041 242.375 342.631 246.335 342.631 251.375C342.631 255.47 345.376 260.195 352.666 264.02ZM369.972 274.46H375.552C376.902 261.41 379.107 250.925 387.522 243.68C384.147 245.3 381.177 245.93 377.982 247.37C374.292 248.99 371.682 251.06 371.682 255.29C371.682 257.135 372.177 259.475 373.347 262.4L372.897 262.625C369.882 257.63 367.632 251.96 367.632 247.73C367.632 244.085 369.297 241.52 373.842 241.52C377.397 241.52 380.862 243.365 383.922 243.365C385.992 243.365 388.602 242.69 392.067 240.44L392.427 240.89C384.012 245.75 379.242 253.715 379.242 266.36C379.242 268.835 379.422 271.58 379.827 274.46H387.207V275H369.972V274.46ZM369.567 250.295C369.567 252.905 370.332 255.92 371.592 258.89C371.277 257.54 371.142 256.325 371.142 255.29C371.142 250.745 373.887 248.585 377.712 246.92C380.367 245.795 383.697 244.715 386.217 243.68C385.272 243.86 384.327 243.95 383.292 243.95C380.907 243.95 378.567 243.545 376.002 243.545C371.277 243.545 369.567 246.38 369.567 250.295ZM419.765 275V274.37C428.09 265.46 428.315 265.235 429.035 264.425C421.655 260.51 418.82 255.605 418.82 251.375C418.82 245.975 423.41 241.745 428.765 241.745C434.795 241.745 439.385 244.49 439.385 250.97C439.385 255.425 435.29 259.655 432.32 262.535L430.34 264.515C432.05 265.325 433.985 266.135 436.235 266.855L436.055 267.395C433.67 266.63 431.69 265.775 429.98 264.92L422.645 272.075H432.095C436.145 272.075 438.125 271.49 438.53 271.175L439.88 258.98H440.42L438.8 275H419.765ZM429.395 264.02C432.86 260.15 435.65 256.28 435.65 251.195C435.65 246.875 433.535 242.42 428.765 242.285C423.77 242.375 419.36 246.335 419.36 251.375C419.36 255.47 422.105 260.195 429.395 264.02ZM444.271 266.9C444.271 262.985 446.926 259.025 452.686 257.99C448.996 255.83 446.296 253.58 446.296 249.485C446.296 245.345 448.951 241.745 455.296 241.745C461.056 241.745 463.936 245.12 463.936 248.72C463.936 251.825 461.866 255.11 457.276 256.325C461.551 258.53 465.601 261.41 465.601 266.63C465.601 271.4 462.181 275.675 454.801 275.675C447.826 275.675 444.271 271.355 444.271 266.9ZM454.981 275.135C460.561 275.135 462.676 271.4 462.676 268.025C462.676 265.325 461.236 262.94 458.626 261.185C457.276 260.195 454.711 258.665 452.731 258.665C449.491 258.665 447.106 262.85 447.106 266.99C447.106 271.085 449.356 275.135 454.981 275.135ZM454.486 255.11C455.476 255.56 455.971 255.785 456.691 255.785C459.436 255.785 461.416 252.23 461.416 248.765C461.416 245.48 459.661 242.285 455.161 242.285C450.571 242.285 448.861 245.345 448.861 248.27C448.861 251.78 452.146 253.94 454.486 255.11ZM488.364 275V274.37C496.689 265.46 496.914 265.235 497.634 264.425C490.254 260.51 487.419 255.605 487.419 251.375C487.419 245.975 492.009 241.745 497.364 241.745C503.394 241.745 507.984 244.49 507.984 250.97C507.984 255.425 503.889 259.655 500.919 262.535L498.939 264.515C500.649 265.325 502.584 266.135 504.834 266.855L504.654 267.395C502.269 266.63 500.289 265.775 498.579 264.92L491.244 272.075H500.694C504.744 272.075 506.724 271.49 507.129 271.175L508.479 258.98H509.019L507.399 275H488.364ZM497.994 264.02C501.459 260.15 504.249 256.28 504.249 251.195C504.249 246.875 502.134 242.42 497.364 242.285C492.369 242.375 487.959 246.335 487.959 251.375C487.959 255.47 490.704 260.195 497.994 264.02ZM515.739 277.205C507.909 277.205 503.634 271.49 503.634 265.955C503.634 260.735 507.549 255.605 515.739 255.425C515.334 254.39 515.064 253.13 515.064 251.78C515.064 246.335 519.474 241.79 525.819 241.79C533.019 241.79 536.124 247.37 536.124 253.625C536.124 264.605 527.529 277.205 515.739 277.205ZM504.174 265.955C504.174 271.265 508.224 276.665 515.739 276.665C522.399 276.665 527.034 272.165 529.779 266.585C527.124 270.455 523.479 272.03 519.834 272.03C513.399 272.03 510.294 267.575 510.294 263.345C510.294 260.33 512.094 257.27 515.154 256.01C507.594 256.28 504.174 261.05 504.174 265.955ZM519.834 271.49C527.619 271.49 531.804 263.795 532.434 256.73C530.544 260.015 527.124 260.96 524.559 260.96C521.409 260.96 517.809 259.61 516.054 256.235C512.634 257.225 510.834 260.285 510.834 263.345C510.834 267.35 513.759 271.49 519.834 271.49ZM525.774 260.105C529.104 260.105 532.569 257.675 532.569 252.32C532.569 247.325 530.454 242.33 525.729 242.33C521.274 242.33 518.754 246.155 518.754 251.78C518.754 256.82 521.679 260.105 525.774 260.105ZM48.9354 298.98L45.0654 301.275C39.2604 304.695 35.4354 308.52 31.6554 312.525C32.4204 312.165 33.6354 311.805 35.1654 311.805C42.0054 311.805 45.6054 316.665 45.6054 322.2C45.6054 329.67 39.7554 333.675 33.3204 333.675C26.7054 333.675 21.8904 328.635 21.8904 321.84C21.8904 319.995 22.2504 318.105 22.9704 316.08C21.9804 313.785 21.3504 311.22 21.3504 308.745C21.3504 303.885 23.8254 299.7 29.7204 299.7C33.3654 299.7 36.7404 301.365 40.5204 301.365C42.5904 301.365 45.2004 300.69 48.5754 298.53L48.9354 298.98ZM30.3954 313.83L30.0354 313.47C34.2654 308.925 37.5054 305.46 43.6704 301.455C42.4554 301.815 41.1954 301.95 39.9354 301.95C37.5054 301.95 34.6704 301.455 32.4204 301.455C25.5804 301.455 22.5204 305.955 22.5204 310.995C22.5204 312.48 22.7454 314.01 23.2404 315.405C24.0954 313.425 25.4004 311.175 27.2454 309.06L27.6054 309.42C23.9604 313.83 22.4304 318.15 22.4304 321.84C22.4304 328.275 27.1104 333 33.3204 333.135C38.9904 332.955 41.8254 328.32 41.8254 321.705C41.8254 314.82 38.5854 312.435 34.8954 312.435C32.9154 312.435 31.2954 313.245 30.3954 313.83ZM60.5654 299.79C68.0354 299.79 71.1404 309.015 71.1404 316.665C71.1404 323.82 67.9454 333.675 60.5654 333.675C53.1404 333.675 49.9904 325.26 49.9904 316.665C49.9904 308.205 53.1404 299.79 60.5654 299.79ZM55.5704 326.295C55.5704 329.535 56.8304 333.135 60.5654 333.135C64.8854 333.135 67.4054 326.295 67.4054 316.665C67.4054 311.13 66.3704 302.715 62.3654 300.69C62.4554 301.005 62.5454 301.41 62.5454 301.86C62.5454 303.75 61.3304 306.945 59.8454 310.635C57.8654 315.63 55.5704 321.525 55.5704 326.295ZM53.7254 316.665C53.7254 320.625 54.0854 324.585 55.0754 327.69C55.0304 327.24 55.0304 326.79 55.0304 326.295C55.0304 321.39 57.3704 315.405 59.3954 310.365C60.7904 306.765 62.0504 303.66 62.0504 301.86C62.0504 300.915 61.6454 300.33 60.5654 300.33C54.8954 300.33 53.7254 309.645 53.7254 316.665Z" fill="black"/>
<path d="M21.6204 43V42.37C29.9454 33.46 30.1704 33.235 30.8904 32.425C23.5104 28.51 20.6754 23.605 20.6754 19.375C20.6754 13.975 25.2654 9.745 30.6204 9.745C36.6504 9.745 41.2404 12.49 41.2404 18.97C41.2404 23.425 37.1454 27.655 34.1754 30.535L32.1954 32.515C33.9054 33.325 35.8404 34.135 38.0904 34.855L37.9104 35.395C35.5254 34.63 33.5454 33.775 31.8354 32.92L24.5004 40.075H33.9504C38.0004 40.075 39.9804 39.49 40.3854 39.175L41.7354 26.98H42.2754L40.6554 43H21.6204ZM31.2504 32.02C34.7154 28.15 37.5054 24.28 37.5054 19.195C37.5054 14.875 35.3904 10.42 30.6204 10.285C25.6254 10.375 21.2154 14.335 21.2154 19.375C21.2154 23.47 23.9604 28.195 31.2504 32.02ZM78.7061 4.705H78.7961C85.9061 4.75 89.0111 7.585 89.0111 12.535C89.0111 21.58 79.2461 29.68 68.9411 33.415C68.5361 39.445 63.3161 43.675 57.8261 43.675C52.1561 43.675 47.6561 39.175 47.2961 32.38C44.0561 29.725 42.5261 25.9 42.5261 22.345C42.5261 15.145 48.9161 6.91 58.6811 6.91C61.4711 6.91 63.5861 7.63 65.0711 8.62C70.1111 6.145 75.1961 4.75 78.7061 4.705ZM68.9411 32.65V32.83C79.0211 29.185 88.4711 21.31 88.4711 12.535C88.4711 7.9 85.5911 5.245 78.7511 5.245C72.7661 5.245 55.1711 11.275 51.6611 26.44C53.3261 24.73 56.1611 23.74 59.1311 23.74C64.2611 23.74 68.9411 26.665 68.9411 32.65ZM47.2961 31.66C47.2961 21.535 55.8011 13.525 64.5311 8.935C63.1361 7.99 61.2461 7.45 58.6811 7.45C49.2311 7.45 43.0661 15.325 43.0661 22.345C43.0661 25.675 44.3261 29.185 47.2961 31.66ZM58.3211 24.64C53.3711 24.64 50.8961 27.025 50.9411 31.75C50.9411 32.335 50.9861 33.325 51.0311 33.865C52.8761 34.585 55.0361 34.99 57.6911 34.99C60.0311 34.99 62.5961 34.675 65.1611 34.045V33.235C65.1611 27.295 62.4161 24.64 58.3211 24.64ZM58.1411 43.135C61.3811 43.135 64.6661 40.3 65.1161 34.585C62.5511 35.215 60.0761 35.53 57.6911 35.53C55.1261 35.53 52.9661 35.125 51.0761 34.495C51.7061 40.66 55.0361 43.135 58.1411 43.135ZM103.183 43V42.37C111.508 33.46 111.733 33.235 112.453 32.425C105.073 28.51 102.238 23.605 102.238 19.375C102.238 13.975 106.828 9.745 112.183 9.745C118.213 9.745 122.803 12.49 122.803 18.97C122.803 23.425 118.708 27.655 115.738 30.535L113.758 32.515C115.468 33.325 117.403 34.135 119.653 34.855L119.473 35.395C117.088 34.63 115.108 33.775 113.398 32.92L106.063 40.075H115.513C119.563 40.075 121.543 39.49 121.948 39.175L123.298 26.98H123.838L122.218 43H103.183ZM112.813 32.02C116.278 28.15 119.068 24.28 119.068 19.195C119.068 14.875 116.953 10.42 112.183 10.285C107.188 10.375 102.778 14.335 102.778 19.375C102.778 23.47 105.523 28.195 112.813 32.02ZM130.119 42.46H135.699C137.049 29.41 139.254 18.925 147.669 11.68C144.294 13.3 141.324 13.93 138.129 15.37C134.439 16.99 131.829 19.06 131.829 23.29C131.829 25.135 132.324 27.475 133.494 30.4L133.044 30.625C130.029 25.63 127.779 19.96 127.779 15.73C127.779 12.085 129.444 9.52 133.989 9.52C137.544 9.52 141.009 11.365 144.069 11.365C146.139 11.365 148.749 10.69 152.214 8.44L152.574 8.89C144.159 13.75 139.389 21.715 139.389 34.36C139.389 36.835 139.569 39.58 139.974 42.46H147.354V43H130.119V42.46ZM129.714 18.295C129.714 20.905 130.479 23.92 131.739 26.89C131.424 25.54 131.289 24.325 131.289 23.29C131.289 18.745 134.034 16.585 137.859 14.92C140.514 13.795 143.844 12.715 146.364 11.68C145.419 11.86 144.474 11.95 143.439 11.95C141.054 11.95 138.714 11.545 136.149 11.545C131.424 11.545 129.714 14.38 129.714 18.295ZM179.911 43V42.37C188.236 33.46 188.461 33.235 189.181 32.425C181.801 28.51 178.966 23.605 178.966 19.375C178.966 13.975 183.556 9.745 188.911 9.745C194.941 9.745 199.531 12.49 199.531 18.97C199.531 23.425 195.436 27.655 192.466 30.535L190.486 32.515C192.196 33.325 194.131 34.135 196.381 34.855L196.201 35.395C193.816 34.63 191.836 33.775 190.126 32.92L182.791 40.075H192.241C196.291 40.075 198.271 39.49 198.676 39.175L200.026 26.98H200.566L198.946 43H179.911ZM189.541 32.02C193.006 28.15 195.796 24.28 195.796 19.195C195.796 14.875 193.681 10.42 188.911 10.285C183.916 10.375 179.506 14.335 179.506 19.375C179.506 23.47 182.251 28.195 189.541 32.02ZM204.417 34.9C204.417 30.985 207.072 27.025 212.832 25.99C209.142 23.83 206.442 21.58 206.442 17.485C206.442 13.345 209.097 9.745 215.442 9.745C221.202 9.745 224.082 13.12 224.082 16.72C224.082 19.825 222.012 23.11 217.422 24.325C221.697 26.53 225.747 29.41 225.747 34.63C225.747 39.4 222.327 43.675 214.947 43.675C207.972 43.675 204.417 39.355 204.417 34.9ZM215.127 43.135C220.707 43.135 222.822 39.4 222.822 36.025C222.822 33.325 221.382 30.94 218.772 29.185C217.422 28.195 214.857 26.665 212.877 26.665C209.637 26.665 207.252 30.85 207.252 34.99C207.252 39.085 209.502 43.135 215.127 43.135ZM214.632 23.11C215.622 23.56 216.117 23.785 216.837 23.785C219.582 23.785 221.562 20.23 221.562 16.765C221.562 13.48 219.807 10.285 215.307 10.285C210.717 10.285 209.007 13.345 209.007 16.27C209.007 19.78 212.292 21.94 214.632 23.11ZM258.398 43V42.37C266.723 33.46 266.948 33.235 267.668 32.425C260.288 28.51 257.453 23.605 257.453 19.375C257.453 13.975 262.043 9.745 267.398 9.745C273.428 9.745 278.018 12.49 278.018 18.97C278.018 23.425 273.923 27.655 270.953 30.535L268.973 32.515C270.683 33.325 272.618 34.135 274.868 34.855L274.688 35.395C272.303 34.63 270.323 33.775 268.613 32.92L261.278 40.075H270.728C274.778 40.075 276.758 39.49 277.163 39.175L278.513 26.98H279.053L277.433 43H258.398ZM268.028 32.02C271.493 28.15 274.283 24.28 274.283 19.195C274.283 14.875 272.168 10.42 267.398 10.285C262.403 10.375 257.993 14.335 257.993 19.375C257.993 23.47 260.738 28.195 268.028 32.02ZM285.773 45.205C277.943 45.205 273.668 39.49 273.668 33.955C273.668 28.735 277.583 23.605 285.773 23.425C285.368 22.39 285.098 21.13 285.098 19.78C285.098 14.335 289.508 9.79 295.853 9.79C303.053 9.79 306.158 15.37 306.158 21.625C306.158 32.605 297.563 45.205 285.773 45.205ZM274.208 33.955C274.208 39.265 278.258 44.665 285.773 44.665C292.433 44.665 297.068 40.165 299.813 34.585C297.158 38.455 293.513 40.03 289.868 40.03C283.433 40.03 280.328 35.575 280.328 31.345C280.328 28.33 282.128 25.27 285.188 24.01C277.628 24.28 274.208 29.05 274.208 33.955ZM289.868 39.49C297.653 39.49 301.838 31.795 302.468 24.73C300.578 28.015 297.158 28.96 294.593 28.96C291.443 28.96 287.843 27.61 286.088 24.235C282.668 25.225 280.868 28.285 280.868 31.345C280.868 35.35 283.793 39.49 289.868 39.49ZM295.808 28.105C299.138 28.105 302.603 25.675 302.603 20.32C302.603 15.325 300.488 10.33 295.763 10.33C291.308 10.33 288.788 14.155 288.788 19.78C288.788 24.82 291.713 28.105 295.808 28.105ZM357.124 8.98L353.254 11.275C347.449 14.695 343.624 18.52 339.844 22.525C340.609 22.165 341.824 21.805 343.354 21.805C350.194 21.805 353.794 26.665 353.794 32.2C353.794 39.67 347.944 43.675 341.509 43.675C334.894 43.675 330.079 38.635 330.079 31.84C330.079 29.995 330.439 28.105 331.159 26.08C330.169 23.785 329.539 21.22 329.539 18.745C329.539 13.885 332.014 9.7 337.909 9.7C341.554 9.7 344.929 11.365 348.709 11.365C350.779 11.365 353.389 10.69 356.764 8.53L357.124 8.98ZM338.584 23.83L338.224 23.47C342.454 18.925 345.694 15.46 351.859 11.455C350.644 11.815 349.384 11.95 348.124 11.95C345.694 11.95 342.859 11.455 340.609 11.455C333.769 11.455 330.709 15.955 330.709 20.995C330.709 22.48 330.934 24.01 331.429 25.405C332.284 23.425 333.589 21.175 335.434 19.06L335.794 19.42C332.149 23.83 330.619 28.15 330.619 31.84C330.619 38.275 335.299 43 341.509 43.135C347.179 42.955 350.014 38.32 350.014 31.705C350.014 24.82 346.774 22.435 343.084 22.435C341.104 22.435 339.484 23.245 338.584 23.83ZM368.754 9.79C376.224 9.79 379.329 19.015 379.329 26.665C379.329 33.82 376.134 43.675 368.754 43.675C361.329 43.675 358.179 35.26 358.179 26.665C358.179 18.205 361.329 9.79 368.754 9.79ZM363.759 36.295C363.759 39.535 365.019 43.135 368.754 43.135C373.074 43.135 375.594 36.295 375.594 26.665C375.594 21.13 374.559 12.715 370.554 10.69C370.644 11.005 370.734 11.41 370.734 11.86C370.734 13.75 369.519 16.945 368.034 20.635C366.054 25.63 363.759 31.525 363.759 36.295ZM361.914 26.665C361.914 30.625 362.274 34.585 363.264 37.69C363.219 37.24 363.219 36.79 363.219 36.295C363.219 31.39 365.559 25.405 367.584 20.365C368.979 16.765 370.239 13.66 370.239 11.86C370.239 10.915 369.834 10.33 368.754 10.33C363.084 10.33 361.914 19.645 361.914 26.665ZM441.015 8.98L437.145 11.275C431.34 14.695 427.515 18.52 423.735 22.525C424.5 22.165 425.715 21.805 427.245 21.805C434.085 21.805 437.685 26.665 437.685 32.2C437.685 39.67 431.835 43.675 425.4 43.675C418.785 43.675 413.97 38.635 413.97 31.84C413.97 29.995 414.33 28.105 415.05 26.08C414.06 23.785 413.43 21.22 413.43 18.745C413.43 13.885 415.905 9.7 421.8 9.7C425.445 9.7 428.82 11.365 432.6 11.365C434.67 11.365 437.28 10.69 440.655 8.53L441.015 8.98ZM422.475 23.83L422.115 23.47C426.345 18.925 429.585 15.46 435.75 11.455C434.535 11.815 433.275 11.95 432.015 11.95C429.585 11.95 426.75 11.455 424.5 11.455C417.66 11.455 414.6 15.955 414.6 20.995C414.6 22.48 414.825 24.01 415.32 25.405C416.175 23.425 417.48 21.175 419.325 19.06L419.685 19.42C416.04 23.83 414.51 28.15 414.51 31.84C414.51 38.275 419.19 43 425.4 43.135C431.07 42.955 433.905 38.32 433.905 31.705C433.905 24.82 430.665 22.435 426.975 22.435C424.995 22.435 423.375 23.245 422.475 23.83ZM441.711 42.46H446.391V14.65C445.176 15.865 443.151 17.53 440.766 18.835L440.496 18.43C444.051 16.36 447.291 13.435 449.271 9.475H449.766V42.46H454.446V43H441.711V42.46ZM116.12 332.46H120.8V304.65C119.585 305.865 117.56 307.53 115.175 308.835L114.905 308.43C118.46 306.36 121.7 303.435 123.68 299.475H124.175V332.46H128.855V333H116.12V332.46ZM200.61 333V332.37C208.935 323.46 209.16 323.235 209.88 322.425C202.5 318.51 199.665 313.605 199.665 309.375C199.665 303.975 204.255 299.745 209.61 299.745C215.64 299.745 220.23 302.49 220.23 308.97C220.23 313.425 216.135 317.655 213.165 320.535L211.185 322.515C212.895 323.325 214.83 324.135 217.08 324.855L216.9 325.395C214.515 324.63 212.535 323.775 210.825 322.92L203.49 330.075H212.94C216.99 330.075 218.97 329.49 219.375 329.175L220.725 316.98H221.265L219.645 333H200.61ZM210.24 322.02C213.705 318.15 216.495 314.28 216.495 309.195C216.495 304.875 214.38 300.42 209.61 300.285C204.615 300.375 200.205 304.335 200.205 309.375C200.205 313.47 202.95 318.195 210.24 322.02ZM302.544 298.98L298.674 301.275C292.869 304.695 289.044 308.52 285.264 312.525C286.029 312.165 287.244 311.805 288.774 311.805C295.614 311.805 299.214 316.665 299.214 322.2C299.214 329.67 293.364 333.675 286.929 333.675C280.314 333.675 275.499 328.635 275.499 321.84C275.499 319.995 275.859 318.105 276.579 316.08C275.589 313.785 274.959 311.22 274.959 308.745C274.959 303.885 277.434 299.7 283.329 299.7C286.974 299.7 290.349 301.365 294.129 301.365C296.199 301.365 298.809 300.69 302.184 298.53L302.544 298.98ZM284.004 313.83L283.644 313.47C287.874 308.925 291.114 305.46 297.279 301.455C296.064 301.815 294.804 301.95 293.544 301.95C291.114 301.95 288.279 301.455 286.029 301.455C279.189 301.455 276.129 305.955 276.129 310.995C276.129 312.48 276.354 314.01 276.849 315.405C277.704 313.425 279.009 311.175 280.854 309.06L281.214 309.42C277.569 313.83 276.039 318.15 276.039 321.84C276.039 328.275 280.719 333 286.929 333.135C292.599 332.955 295.434 328.32 295.434 321.705C295.434 314.82 292.194 312.435 288.504 312.435C286.524 312.435 284.904 313.245 284.004 313.83ZM340.495 325.665V325.125C346.165 317.475 351.34 309.78 355.255 299.25L359.08 301.545L341.215 325.125H354.445V313.245L357.865 310.455V325.125H362.32V325.665H357.865V332.46H362.23V333H350.035V332.46H354.445V325.665H340.495ZM440.62 313.965L440.35 313.695L436.93 301.005H433.735V300.465H451.15L453.805 311.895L453.4 312.075L450.7 302.04C448.405 300.915 445.84 301.005 442.96 301.005H437.47L440.845 313.29C442.78 312.39 444.49 312.03 446.065 312.03C452.23 312.03 455.92 317.655 455.92 322.155C455.92 330.21 450.07 333.675 443.635 333.675C437.02 333.675 432.205 328.635 432.205 321.84C432.205 317.97 433.78 313.515 437.56 309.06L437.92 309.42C434.275 313.83 432.745 318.15 432.745 321.84C432.745 328.275 437.425 333 443.635 333.135C449.305 332.955 452.14 328.59 452.14 321.885C452.14 315.72 449.125 312.84 445.21 312.84C443.77 312.84 442.24 313.2 440.62 313.965ZM531.211 294.705H531.301C538.411 294.75 541.516 297.585 541.516 302.535C541.516 311.58 531.751 319.68 521.446 323.415C521.041 329.445 515.821 333.675 510.331 333.675C504.661 333.675 500.161 329.175 499.801 322.38C496.561 319.725 495.031 315.9 495.031 312.345C495.031 305.145 501.421 296.91 511.186 296.91C513.976 296.91 516.091 297.63 517.576 298.62C522.616 296.145 527.701 294.75 531.211 294.705ZM521.446 322.65V322.83C531.526 319.185 540.976 311.31 540.976 302.535C540.976 297.9 538.096 295.245 531.256 295.245C525.271 295.245 507.676 301.275 504.166 316.44C505.831 314.73 508.666 313.74 511.636 313.74C516.766 313.74 521.446 316.665 521.446 322.65ZM499.801 321.66C499.801 311.535 508.306 303.525 517.036 298.935C515.641 297.99 513.751 297.45 511.186 297.45C501.736 297.45 495.571 305.325 495.571 312.345C495.571 315.675 496.831 319.185 499.801 321.66ZM510.826 314.64C505.876 314.64 503.401 317.025 503.446 321.75C503.446 322.335 503.491 323.325 503.536 323.865C505.381 324.585 507.541 324.99 510.196 324.99C512.536 324.99 515.101 324.675 517.666 324.045V323.235C517.666 317.295 514.921 314.64 510.826 314.64ZM510.646 333.135C513.886 333.135 517.171 330.3 517.621 324.585C515.056 325.215 512.581 325.53 510.196 325.53C507.631 325.53 505.471 325.125 503.581 324.495C504.211 330.66 507.541 333.135 510.646 333.135Z" fill="#B9B9B9"/>
</svg>
