<svg width="93" height="83" viewBox="0 0 93 83" fill="none" xmlns="http://www.w3.org/2000/svg">
<path d="M71.3916 1C75.0729 1.01479 78.6626 2.0944 81.7217 4.0957L82.3271 4.50879H82.3281C85.4017 6.69329 87.8659 9.60286 89.5 12.9658L89.8154 13.6445C91.8373 18.1902 92.4733 23.216 91.6504 28.1064L91.5654 28.5801L91.5645 28.5869C90.5521 34.2077 87.8284 39.6038 83.417 44.6221L82.9844 45.1064C74.6237 54.3431 65.6454 63.347 58.7305 70.0654C55.274 73.4237 52.3346 76.2097 50.248 78.166C49.2049 79.1441 48.3745 79.9151 47.7998 80.4463C47.5127 80.7116 47.2891 80.9169 47.1348 81.0586C47.0578 81.1293 46.998 81.1843 46.9561 81.2227C46.9351 81.2418 46.918 81.2568 46.9062 81.2676C46.9004 81.2729 46.896 81.2772 46.8926 81.2803L46.8877 81.2852L46.8809 81.291L46.499 81.6416L46.1172 81.291L46.1064 81.2803C46.1031 81.2772 46.0977 81.273 46.0918 81.2676C46.0801 81.2569 46.0637 81.2416 46.043 81.2227C46.001 81.1843 45.9414 81.1294 45.8643 81.0586C45.7098 80.9168 45.4856 80.7119 45.1982 80.4463C44.6235 79.9151 43.7933 79.144 42.75 78.166C40.6634 76.21 37.7241 73.4251 34.2676 70.0684C27.3526 63.3529 18.3745 54.3554 10.0137 45.1309H10.0146C5.49433 40.1372 2.65989 34.7614 1.53711 29.1553L1.43457 28.6113L1.43262 28.6045L1.34863 28.1318C0.553871 23.3987 1.12368 18.5396 2.99219 14.1104L3.18262 13.6689C4.70524 10.249 7.07246 7.26439 10.0635 4.9873L10.6709 4.54199V4.54102C13.8604 2.27257 17.6898 1.04503 21.6221 1.03223L22.3447 1.0293C26.9032 1.28445 31.2699 2.95551 34.8164 5.8125L34.8359 5.82812C38.8496 8.90184 42.4709 13.3419 45.6221 19.1035L46.499 20.707L47.377 19.1035C50.5274 13.3432 54.1647 8.90114 58.1641 5.82617L58.1729 5.81934L58.1826 5.8125C61.92 2.80183 66.568 1.1075 71.3916 1Z" fill="#B54A4A" stroke="#B54A4A" stroke-width="2"/>
</svg>
