<svg width="368" height="113" viewBox="0 0 368 113" fill="none" xmlns="http://www.w3.org/2000/svg">
<path d="M21.164 1.74805H64.493V8.32605H63.063C59.488 8.32605 58.201 17.621 58.201 22.769V93.2681C58.201 102.563 60.203 104.279 63.206 104.279H64.493V111H41.47V104.279H43.043C46.904 104.279 47.762 100.99 47.762 92.9821V21.482C47.762 14.904 47.19 8.32605 43.472 8.32605H39.325C35.035 8.32605 34.892 12.044 34.749 22.769C34.463 40.501 34.034 56.5171 33.605 65.3831C33.319 71.1031 32.318 88.8351 29.315 99.7031C26.884 108.426 22.88 112.573 15.444 112.573C3.861 112.573 0 102.706 0 95.6991C0 89.4071 3.289 86.118 7.15 86.118C11.583 86.118 14.872 90.408 14.872 95.2701C14.872 98.9881 13.013 102.706 9.438 103.421C9.867 105.423 11.726 106.996 14.872 106.996C19.019 106.996 21.736 104.136 23.452 98.2731C27.885 82.9721 28.457 49.3671 28.457 32.3501C28.457 10.4711 27.599 8.32605 23.595 8.32605H21.164V1.74805Z" fill="#B54A4A"/>
<path d="M122.216 0.175049C138.232 0.175049 145.811 15.7621 145.811 53.9431C145.811 93.4111 137.66 112.573 118.927 112.573C105.056 112.573 97.1908 101.991 97.0478 61.6651H87.4668V92.9821C87.4668 100.99 88.4678 104.279 92.3288 104.279H93.6158V111H70.7358V104.279H72.1658C76.5988 104.279 77.0278 99.2741 77.0278 93.1251V28.203C77.0278 13.7601 76.7418 8.32605 72.1658 8.32605H70.7358V1.74805H93.6158V8.32605H92.0428C88.0388 8.32605 87.4668 11.9011 87.4668 22.769V54.944H97.0478C97.6198 17.764 105.199 0.175049 122.216 0.175049ZM121.501 6.89605C111.777 6.89605 109.346 24.3421 109.346 64.954C109.346 86.976 110.061 105.852 120.786 105.852C130.796 105.852 133.37 89.1211 133.37 50.368C133.37 29.919 132.655 6.89605 121.501 6.89605Z" fill="#B54A4A"/>
<path d="M151.865 1.74805H192.906V19.909H187.758V17.0491C187.758 11.3291 186.614 9.47005 184.469 9.47005H173.315C169.168 9.47005 168.596 12.044 168.596 19.48V51.083H179.464C193.049 51.083 199.77 62.666 199.77 81.6851C199.77 103.421 191.047 111 179.464 111H152.151V104.422H153.295C156.298 104.422 158.3 103.707 158.3 94.8411V21.1961C158.3 13.1881 157.871 8.46905 153.867 8.46905H151.865V1.74805ZM173.601 104.422H176.032C182.324 104.422 187.758 102.134 187.758 81.9711C187.758 67.0991 184.755 58.2331 176.032 58.2331H168.596V94.8411C168.596 102.42 169.454 104.422 173.601 104.422Z" fill="#B54A4A"/>
<path d="M230.266 0.175049C246.282 0.175049 254.719 15.7621 254.719 53.9431C254.719 93.4111 245.71 112.573 226.977 112.573C212.963 112.573 204.24 101.705 204.24 59.9491C204.24 19.3371 212.534 0.175049 230.266 0.175049ZM229.694 6.89605C219.97 6.89605 216.538 24.3421 216.538 62.3801C216.538 86.8331 217.968 105.852 228.693 105.852C238.56 105.852 242.278 89.4071 242.278 52.7991C242.278 30.062 240.848 6.89605 229.694 6.89605Z" fill="#B54A4A"/>
<path d="M261.077 8.32605V1.74805H285.959C299.83 1.74805 305.979 9.61305 305.979 24.914C305.979 35.0671 303.262 42.217 296.398 47.6511C307.695 50.082 314.988 61.951 314.988 80.398C314.988 99.4171 307.266 111 291.679 111H261.077V104.279H263.079C266.511 104.279 267.226 98.8451 267.226 46.078C267.226 12.6161 266.94 8.32605 262.507 8.32605H261.077ZM283.099 8.32605C277.808 8.32605 277.665 12.33 277.665 47.6511H283.385C290.392 47.6511 293.824 40.787 293.824 28.3461C293.824 14.761 289.82 8.32605 283.099 8.32605ZM288.104 54.3721H277.522V59.2341C277.522 95.9851 277.808 104.279 281.097 104.279H288.104C297.256 104.279 302.833 93.268 302.833 75.965C302.833 58.519 297.113 54.3721 288.104 54.3721Z" fill="#B54A4A"/>
<path d="M341.458 104.422H343.889C350.181 104.422 355.615 102.134 355.615 81.9711C355.615 67.0991 352.612 58.2331 343.889 58.2331H336.453V94.8411C336.453 102.42 337.311 104.422 341.458 104.422ZM320.008 111V104.422H321.152C324.155 104.422 326.157 103.707 326.157 94.8411V17.1921C326.157 9.89905 324.727 8.46905 321.152 8.46905H320.008V1.74805H343.46V8.46905H341.744C337.597 8.46905 336.453 12.4731 336.453 21.6251V51.083H347.321C360.906 51.083 367.627 62.666 367.627 81.6851C367.627 103.421 358.904 111 347.321 111H320.008Z" fill="#B54A4A"/>
</svg>
